<mxfile host="Electron" modified="2024-05-15T23:17:36.960Z" agent="Mozilla/5.0 (Windows NT 10.0; Win64; x64) AppleWebKit/537.36 (KHTML, like Gecko) draw.io/24.2.5 Chrome/120.0.6099.109 Electron/28.1.0 Safari/537.36" etag="S0l9iw6_lGjMEUJmwxPM" version="24.2.5" type="device">
  <diagram name="페이지-1" id="Fg3F8MiWt500lfujR5S4">
    <mxGraphModel dx="1194" dy="657" grid="1" gridSize="10" guides="1" tooltips="1" connect="1" arrows="1" fold="1" page="1" pageScale="1" pageWidth="827" pageHeight="1169" math="0" shadow="0">
      <root>
        <mxCell id="0" />
        <mxCell id="1" parent="0" />
        <mxCell id="Xrz4ZLWfAwfnYSgGnZuo-4" value="" style="edgeStyle=orthogonalEdgeStyle;rounded=0;orthogonalLoop=1;jettySize=auto;html=1;entryX=0.5;entryY=0;entryDx=0;entryDy=0;" edge="1" parent="1" source="Xrz4ZLWfAwfnYSgGnZuo-1" target="Xrz4ZLWfAwfnYSgGnZuo-10">
          <mxGeometry relative="1" as="geometry">
            <mxPoint x="420" y="230" as="targetPoint" />
          </mxGeometry>
        </mxCell>
        <mxCell id="Xrz4ZLWfAwfnYSgGnZuo-1" value="start" style="rounded=1;whiteSpace=wrap;html=1;" vertex="1" parent="1">
          <mxGeometry x="360" y="130" width="120" height="60" as="geometry" />
        </mxCell>
        <mxCell id="Xrz4ZLWfAwfnYSgGnZuo-7" value="end" style="rounded=1;whiteSpace=wrap;html=1;" vertex="1" parent="1">
          <mxGeometry x="360" y="545" width="120" height="60" as="geometry" />
        </mxCell>
        <mxCell id="Xrz4ZLWfAwfnYSgGnZuo-12" value="" style="edgeStyle=orthogonalEdgeStyle;rounded=0;orthogonalLoop=1;jettySize=auto;html=1;" edge="1" parent="1" source="Xrz4ZLWfAwfnYSgGnZuo-10" target="Xrz4ZLWfAwfnYSgGnZuo-11">
          <mxGeometry relative="1" as="geometry" />
        </mxCell>
        <mxCell id="Xrz4ZLWfAwfnYSgGnZuo-13" value="&amp;gt; 0" style="edgeLabel;html=1;align=center;verticalAlign=middle;resizable=0;points=[];" vertex="1" connectable="0" parent="Xrz4ZLWfAwfnYSgGnZuo-12">
          <mxGeometry x="0.28" y="3" relative="1" as="geometry">
            <mxPoint as="offset" />
          </mxGeometry>
        </mxCell>
        <mxCell id="Xrz4ZLWfAwfnYSgGnZuo-21" style="edgeStyle=orthogonalEdgeStyle;rounded=0;orthogonalLoop=1;jettySize=auto;html=1;entryX=0;entryY=0.5;entryDx=0;entryDy=0;" edge="1" parent="1" source="Xrz4ZLWfAwfnYSgGnZuo-10" target="Xrz4ZLWfAwfnYSgGnZuo-7">
          <mxGeometry relative="1" as="geometry">
            <Array as="points">
              <mxPoint x="320" y="280" />
              <mxPoint x="320" y="575" />
            </Array>
          </mxGeometry>
        </mxCell>
        <mxCell id="Xrz4ZLWfAwfnYSgGnZuo-22" value="&amp;lt;= 0" style="edgeLabel;html=1;align=center;verticalAlign=middle;resizable=0;points=[];" vertex="1" connectable="0" parent="Xrz4ZLWfAwfnYSgGnZuo-21">
          <mxGeometry x="-0.85" y="2" relative="1" as="geometry">
            <mxPoint as="offset" />
          </mxGeometry>
        </mxCell>
        <mxCell id="Xrz4ZLWfAwfnYSgGnZuo-10" value="pid = waitpid&lt;div&gt;(-1, NULL, WNOHANG)&lt;/div&gt;" style="rhombus;whiteSpace=wrap;html=1;" vertex="1" parent="1">
          <mxGeometry x="360" y="240" width="120" height="80" as="geometry" />
        </mxCell>
        <mxCell id="Xrz4ZLWfAwfnYSgGnZuo-19" style="edgeStyle=orthogonalEdgeStyle;rounded=0;orthogonalLoop=1;jettySize=auto;html=1;entryX=1;entryY=0.5;entryDx=0;entryDy=0;" edge="1" parent="1" source="Xrz4ZLWfAwfnYSgGnZuo-11" target="Xrz4ZLWfAwfnYSgGnZuo-10">
          <mxGeometry relative="1" as="geometry">
            <Array as="points">
              <mxPoint x="500" y="380" />
              <mxPoint x="500" y="280" />
            </Array>
          </mxGeometry>
        </mxCell>
        <mxCell id="Xrz4ZLWfAwfnYSgGnZuo-25" value="" style="edgeStyle=orthogonalEdgeStyle;rounded=0;orthogonalLoop=1;jettySize=auto;html=1;" edge="1" parent="1" source="Xrz4ZLWfAwfnYSgGnZuo-11" target="Xrz4ZLWfAwfnYSgGnZuo-23">
          <mxGeometry relative="1" as="geometry" />
        </mxCell>
        <mxCell id="Xrz4ZLWfAwfnYSgGnZuo-11" value="print&lt;div&gt;&quot;Client (xxxxx)&#39;s Released&quot;&lt;/div&gt;" style="rounded=0;whiteSpace=wrap;html=1;" vertex="1" parent="1">
          <mxGeometry x="360" y="350" width="120" height="60" as="geometry" />
        </mxCell>
        <mxCell id="Xrz4ZLWfAwfnYSgGnZuo-24" value="" style="edgeStyle=orthogonalEdgeStyle;rounded=0;orthogonalLoop=1;jettySize=auto;html=1;" edge="1" parent="1" source="Xrz4ZLWfAwfnYSgGnZuo-23" target="Xrz4ZLWfAwfnYSgGnZuo-7">
          <mxGeometry relative="1" as="geometry" />
        </mxCell>
        <mxCell id="Xrz4ZLWfAwfnYSgGnZuo-23" value="remove&lt;br&gt;INFO node&lt;div&gt;which has pid&lt;/div&gt;" style="rounded=0;whiteSpace=wrap;html=1;" vertex="1" parent="1">
          <mxGeometry x="360" y="450" width="120" height="60" as="geometry" />
        </mxCell>
      </root>
    </mxGraphModel>
  </diagram>
</mxfile>
